<svg xmlns="http://www.w3.org/2000/svg" width="320" height="448" viewBox="0 0 320 448"><path d="M0 149.25q0-27 9.375-50.875T35.25 56.75t38-30.75T119.5 6.5 170 0q39.5 0 73.5 16.625T298.75 65 320 136.75q0 24-4.75 47t-15 44.25-25 37.375-36.25 25.75-47.25 9.625q-17 0-33.75-8t-24-22q-2.5 9.75-7 28.125t-5.875 23.75-5.125 17.75-6.5 17.75-8 15.625T90 393.125 74.5 414.75L71 416l-2.25-2.5Q65 374.25 65 366.5q0-23 5.375-51.625T87 243t13-50.75Q92 176 92 150q0-20.75 13-39t33-18.25q15.25 0 23.75 10.125t8.5 25.625q0 16.5-11 47.75t-11 46.75q0 15.75 11.25 26.125t27.25 10.375q13.75 0 25.5-6.25t19.625-17 14-23.75 9.5-27.625 5-27.75T262 132.25q0-43.25-27.375-67.375T163.25 40.75q-50 0-83.5 32.375t-33.5 82.125q0 11 3.125 21.25t6.75 16.25 6.75 11.375T66 211.75q0 7-3.75 18.25T53 241.25q-.5 0-4.25-.75-12.75-3.75-22.625-14t-15.25-23.625-8.125-27T0 149.25z" fill="#fff"/></svg>