<?xml version="1.0" encoding="UTF-8" standalone="no"?>
<!-- Generator: Adobe Illustrator 15.1.0, SVG Export Plug-In . SVG Version: 6.00 Build 0)  -->

<svg
   xmlns:dc="http://purl.org/dc/elements/1.1/"
   xmlns:cc="http://creativecommons.org/ns#"
   xmlns:rdf="http://www.w3.org/1999/02/22-rdf-syntax-ns#"
   xmlns:svg="http://www.w3.org/2000/svg"
   xmlns="http://www.w3.org/2000/svg"
   xmlns:sodipodi="http://sodipodi.sourceforge.net/DTD/sodipodi-0.dtd"
   xmlns:inkscape="http://www.inkscape.org/namespaces/inkscape"
   version="1.1"
   id="Layer_1"
   x="0px"
   y="0px"
   width="504px"
   height="288px"
   viewBox="0 0 504 288"
   enable-background="new 0 0 504 288"
   xml:space="preserve"
   inkscape:version="0.48.2 r9819"
   sodipodi:docname="youtube.svg"><metadata
   id="metadata13"><rdf:RDF><cc:Work
       rdf:about=""><dc:format>image/svg+xml</dc:format><dc:type
         rdf:resource="http://purl.org/dc/dcmitype/StillImage" /></cc:Work></rdf:RDF></metadata><defs
   id="defs11" /><sodipodi:namedview
   pagecolor="#ffffff"
   bordercolor="#666666"
   borderopacity="1"
   objecttolerance="10"
   gridtolerance="10"
   guidetolerance="10"
   inkscape:pageopacity="0"
   inkscape:pageshadow="2"
   inkscape:window-width="640"
   inkscape:window-height="480"
   id="namedview9"
   showgrid="false"
   inkscape:zoom="0.64285714"
   inkscape:cx="252"
   inkscape:cy="144"
   inkscape:window-x="0"
   inkscape:window-y="0"
   inkscape:window-maximized="0"
   inkscape:current-layer="Layer_1" />
<g
   id="g3"
   transform="matrix(6.8611573,0,0,6.8611573,-1571.022,-842.18124)">
	<g
   id="g5">
		<path
   d="m 243.342,142.497 h 2.653 v -3.901 l 1.987,-6.991 -2.575,0.057 c -0.365,2.022 -0.625,3.495 -0.78,4.645 -0.052,-0.728 -0.278,-2.541 -0.681,-4.645 h -2.575 l 1.971,6.934 v 3.901 z m 12.138,-0.619 c 0.127,0.235 0.323,0.424 0.59,0.566 0.266,0.142 0.715,0.099 1.118,0.099 0.355,0 0.669,0.04 0.942,-0.109 0.272,-0.149 0.503,-0.373 0.688,-0.67 l -0.046,0.734 h 2.735 v -9.004 h -2.689 v 6.115 c 0,0.724 -0.019,1.152 -0.056,1.285 -0.038,0.133 -0.157,0.2 -0.356,0.2 -0.187,0 -0.414,-0.064 -0.457,-0.193 -0.042,-0.128 -0.063,-0.537 -0.063,-1.225 v -6.182 h -2.689 v 6.128 c 0,0.759 0.016,1.266 0.046,1.521 0.032,0.254 0.111,0.5 0.237,0.735 z m -7.519,-2.656 c 0,0.75 0.048,1.313 0.146,1.688 0.097,0.375 0.26,0.695 0.489,0.959 0.229,0.264 0.549,0.461 0.962,0.592 0.413,0.131 1.257,0.196 1.852,0.196 0.533,0 0.777,-0.077 1.188,-0.229 0.41,-0.153 0.747,-0.391 1.009,-0.712 0.262,-0.321 0.433,-0.668 0.513,-1.039 0.08,-0.371 0.12,-0.953 0.12,-1.748 v -2.163 c 0,-0.626 -0.044,-1.092 -0.13,-1.398 -0.087,-0.306 -0.248,-0.604 -0.483,-0.892 -0.235,-0.288 -0.568,-0.522 -1.002,-0.702 -0.433,-0.18 -0.723,-0.27 -1.327,-0.27 -0.719,0 -1.65,0.14 -2.112,0.419 -0.462,0.279 -0.781,0.65 -0.958,1.112 -0.178,0.461 -0.266,1.103 -0.266,1.924 v 2.263 z m 2.689,-3.009 c 0,-0.453 0.026,-0.738 0.08,-0.855 0.053,-0.118 0.16,-0.177 0.32,-0.177 0.16,0 0.377,0.059 0.426,0.177 0.049,0.117 0.073,0.403 0.073,0.855 v 3.62 c 0,0.382 -0.025,0.63 -0.077,0.746 -0.051,0.115 -0.27,0.173 -0.43,0.173 -0.155,0 -0.26,-0.063 -0.313,-0.189 -0.053,-0.126 -0.08,-0.398 -0.08,-0.815 v -3.535 z m 9.638,13.047 c -0.036,-0.098 -0.109,-0.146 -0.22,-0.146 -0.137,0 -0.222,0.042 -0.254,0.125 -0.032,0.083 -0.049,-0.148 -0.049,0.217 v 0.473 h 0.576 v -0.473 c 10e-4,-0.337 -0.018,-0.099 -0.053,-0.196 z m -5.235,0.008 c -0.042,-0.103 -0.352,-0.154 -0.476,-0.154 -0.12,0 -0.198,0.045 -0.234,0.135 -0.036,0.089 -0.054,-0.14 -0.054,0.222 v 3.02 c 0,0.348 0.021,0.571 0.061,0.669 0.041,0.098 0.122,0.146 0.242,0.146 0.123,0 0.432,-0.051 0.469,-0.151 0.037,-0.102 0.057,-0.344 0.057,-0.728 v -2.956 c -0.001,-0.337 -0.022,-0.101 -0.065,-0.203 z m 5.599,-4.887 h -16.36 c -2.51,0 -4.545,2.035 -4.545,4.545 v 2.727 c 0,2.51 2.035,4.545 4.545,4.545 h 16.36 c 2.51,0 4.544,-2.035 4.544,-4.545 v -2.727 c 0,-2.51 -2.034,-4.545 -4.544,-4.545 z m -14.594,3.574 h -0.823 v 6.379 h -1.828 v -6.379 h -0.932 v -1.752 h 3.583 v 1.752 z m 5.494,6.379 h -2.006 l 0.034,-0.538 c -0.137,0.219 -0.305,0.383 -0.505,0.492 -0.2,0.108 -0.431,0.163 -0.691,0.163 -0.296,0 -0.542,-0.052 -0.737,-0.156 -0.195,-0.104 -0.339,-0.242 -0.432,-0.415 -0.093,-0.172 -0.15,-0.352 -0.173,-0.539 -0.023,-0.188 -0.034,-0.559 -0.034,-1.115 v -4.256 h 1.802 v 4.295 c 0,0.504 0.015,0.804 0.046,0.898 0.031,0.094 0.285,0.142 0.422,0.142 0.146,0 0.347,-0.049 0.375,-0.146 0.027,-0.098 0.042,-0.412 0.042,-0.942 v -4.189 h 1.858 v 6.306 z m 5.537,-1.806 c 0,0.475 -0.031,0.829 -0.095,1.062 -0.064,0.233 -0.213,0.435 -0.447,0.605 -0.234,0.17 -0.513,0.256 -0.835,0.256 -0.23,0 -0.446,-0.05 -0.646,-0.151 -0.2,-0.101 -0.61,-0.253 -0.776,-0.455 l -0.127,0.489 h -1.675 v -8.131 h 1.802 v 2.325 c 0.162,-0.188 0.571,-0.33 0.771,-0.423 0.2,-0.093 0.417,-0.14 0.651,-0.14 0.271,0 0.505,0.043 0.703,0.127 0.198,0.085 0.35,0.204 0.454,0.356 0.104,0.153 0.167,0.303 0.188,0.449 0.021,0.146 0.031,0.005 0.031,0.483 v 3.148 z m 5.229,-1.772 h -2.553 v 1.855 c 0,0.293 0.021,0.481 0.063,0.566 0.042,0.084 0.123,0.127 0.244,0.127 0.149,0 0.25,-0.057 0.3,-0.169 0.051,-0.112 0.076,-0.329 0.076,-0.651 v -0.854 h 1.869 v 0.479 c 0,0.4 -0.024,0.708 -0.075,0.922 -0.051,0.216 -0.169,0.444 -0.354,0.688 -0.186,0.245 -0.42,0.428 -0.705,0.55 -0.285,0.122 -0.642,0.183 -1.071,0.183 -0.417,0 -0.671,-0.06 -0.99,-0.181 -0.318,-0.12 -0.623,-0.285 -0.801,-0.495 -0.178,-0.21 -0.301,-0.441 -0.369,-0.693 -0.068,-0.252 -0.103,-0.619 -0.103,-1.101 v -2.117 c 0,-0.565 0.077,-0.558 0.229,-0.885 0.153,-0.327 0.461,-0.578 0.809,-0.752 0.349,-0.174 0.636,-0.262 1.088,-0.262 0.553,0 1.01,0.105 1.369,0.315 0.359,0.21 0.612,0.488 0.757,0.835 0.145,0.347 0.217,0.606 0.217,1.234 v 0.406 z"
   id="path7"
   inkscape:connector-curvature="0"
   style="fill:#002a59" />
	</g>
</g>
</svg>